/* XPM */
static char *_16be65d23314441e7ef6292bf06cdc6[] = {
/* columns rows colors chars-per-pixel */
"32 32 70 1 ",
"  c black",
". c #020202",
"X c #040404",
"o c gray2",
"O c #060606",
"+ c #070707",
"@ c gray4",
"# c #0B0B0B",
"$ c #0C0C0C",
"% c #111111",
"& c gray9",
"* c #191919",
"= c #1B1B1B",
"- c #1D1D1D",
"; c #252525",
": c gray15",
"> c #272727",
", c #282828",
"< c #323232",
"1 c gray20",
"2 c gray23",
"3 c #3C3C3C",
"4 c gray24",
"5 c #3E3E3E",
"6 c #444444",
"7 c gray27",
"8 c gray28",
"9 c #484848",
"0 c gray29",
"q c #4B4B4B",
"w c #555555",
"e c #565656",
"r c #585858",
"t c gray35",
"y c gray36",
"u c #5D5D5D",
"i c gray37",
"p c #5F5F5F",
"a c #606060",
"s c #626262",
"d c #646464",
"f c #656565",
"g c gray40",
"h c #717171",
"j c #747474",
"k c #767676",
"l c #777777",
"z c #797979",
"x c gray48",
"c c #7B7B7B",
"v c gray49",
"b c gray50",
"n c #848484",
"m c #AFAFAF",
"M c gray69",
"N c #B1B1B1",
"B c #BBBBBB",
"V c gray75",
"C c #CDCDCD",
"Z c #D2D2D2",
"A c gray92",
"S c #ECECEC",
"D c gray96",
"F c gray97",
"G c #F9F9F9",
"H c #FBFBFB",
"J c gray99",
"K c #FEFEFE",
"L c gray100",
"P c None",
/* pixels */
"PPPPPPPPPPPPPPPPPPPPPPPPPPPPPPPP",
"PPPPPPPPPPPPPP    PPPPPPPPPPPPPP",
"PPPPPPPPPPPP        PPPPPPPPPPPP",
"PPPPPPPPPP           PPPPPPPPPPP",
"PPPPPPPPP              PPPPPPPPP",
"PPPPPPP                  PPPPPPP",
"PPPPP                      PPPPP",
"PPPP                        PPPP",
"PPP                          PPP",
"PP                           PPP",
"PP        BC       $ZN        PP",
"PP        LLeruruueuLA        PP",
"PP        VLr-8686*aLm        PP",
"PP        1LHh,88>xLL>        PP",
"PP         qLLx XnLF6         PP",
"PP          #bLFHLkX          PP",
"PP          #bLHHLkX          PP",
"PP         qLLxX#nLF3         PP",
"PP        1LHk>q8>bLL>        PP",
"PP        VLe*3323&uLN        PP",
"PP        HLraddddudLS        PP",
"PP        BC#X#X#XX%ZN        PP",
"PP                           PPP",
"PPP                          PPP",
"PPPP                        PPPP",
"PPPPP                      PPPPP",
"PPPPPPP                  PPPPPPP",
"PPPPPPPPP              PPPPPPPPP",
"PPPPPPPPPP           PPPPPPPPPPP",
"PPPPPPPPPPPP        PPPPPPPPPPPP",
"PPPPPPPPPPPPPP    PPPPPPPPPPPPPP",
"PPPPPPPPPPPPPPPPPPPPPPPPPPPPPPPP"
};
