/* XPM */
static char *_1a1f14f9c244a0489f0f5c36836c16a[] = {
/* columns rows colors chars-per-pixel */
"64 64 130 2 ",
"   c black",
".  c #010101",
"X  c #020202",
"o  c gray1",
"O  c #040404",
"+  c gray2",
"@  c gray3",
"#  c #090909",
"$  c #0C0C0C",
"%  c gray5",
"&  c gray6",
"*  c #101010",
"=  c #111111",
"-  c gray7",
";  c gray8",
":  c #151515",
">  c gray9",
",  c #191919",
"<  c #1B1B1B",
"1  c gray11",
"2  c #1E1E1E",
"3  c gray12",
"4  c gray13",
"5  c #232323",
"6  c gray15",
"7  c #272727",
"8  c gray16",
"9  c #2A2A2A",
"0  c #2C2C2C",
"q  c #313131",
"w  c #353535",
"e  c #373737",
"r  c #3C3C3C",
"t  c #414141",
"y  c gray27",
"u  c #464646",
"i  c #484848",
"p  c #494949",
"a  c gray29",
"s  c #4B4B4B",
"d  c gray30",
"f  c #4E4E4E",
"g  c #555555",
"h  c gray34",
"j  c #585858",
"k  c gray35",
"l  c #5B5B5B",
"z  c gray36",
"x  c #5D5D5D",
"c  c gray37",
"v  c gray38",
"b  c gray39",
"n  c #646464",
"m  c gray40",
"M  c DimGray",
"N  c gray42",
"B  c #6D6D6D",
"V  c #6F6F6F",
"C  c #747474",
"Z  c #848484",
"A  c #868686",
"S  c gray53",
"D  c gray55",
"F  c #8D8D8D",
"G  c #8E8E8E",
"H  c gray56",
"J  c #909090",
"K  c #929292",
"L  c #939393",
"P  c gray58",
"I  c gray59",
"U  c #979797",
"Y  c #989898",
"T  c gray60",
"R  c #9A9A9A",
"E  c #9B9B9B",
"W  c gray61",
"Q  c #9D9D9D",
"!  c #9F9F9F",
"~  c #A0A0A0",
"^  c #ACACAC",
"/  c gray68",
"(  c #AEAEAE",
")  c #B1B1B1",
"_  c #B2B2B2",
"`  c gray70",
"'  c #B4B4B4",
"]  c gray71",
"[  c #B9B9B9",
"{  c #BBBBBB",
"}  c #BCBCBC",
"|  c #C0C0C0",
" . c #C3C3C3",
".. c #C5C5C5",
"X. c #C6C6C6",
"o. c gray78",
"O. c #C8C8C8",
"+. c gray79",
"@. c gray80",
"#. c #CDCDCD",
"$. c #D0D0D0",
"%. c #D2D2D2",
"&. c gray83",
"*. c #D5D5D5",
"=. c gray84",
"-. c #DADADA",
";. c gainsboro",
":. c #DDDDDD",
">. c gray87",
",. c #DFDFDF",
"<. c gray88",
"1. c #E2E2E2",
"2. c gray89",
"3. c #E4E4E4",
"4. c gray90",
"5. c #E6E6E6",
"6. c #EAEAEA",
"7. c gray92",
"8. c #EEEEEE",
"9. c gray94",
"0. c #F1F1F1",
"q. c gray95",
"w. c #F4F4F4",
"e. c gray96",
"r. c #F9F9F9",
"t. c gray98",
"y. c gray99",
"u. c #FDFDFD",
"i. c gray100",
"p. c None",
/* pixels */
"p.p.p.p.p.p.p.p.p.p.p.p.p.p.p.p.p.p.p.p.p.p.p.p.p.p.p.p.p.p.p.p.p.p.p.p.p.p.p.p.p.p.p.p.p.p.p.p.p.p.p.p.p.p.p.p.p.p.p.p.p.p.p.p.",
"p.p.p.p.p.p.p.p.p.p.p.p.p.p.p.p.p.p.p.p.p.p.p.p.p.p.p.p.p.p.p.p.p.p.p.p.p.p.p.p.p.p.p.p.p.p.p.p.p.p.p.p.p.p.p.p.p.p.p.p.p.p.p.p.",
"p.p.p.p.p.p.p.p.p.p.p.p.p.p.p.p.p.p.p.p.p.p.p.p.p.p.p.p.p.            p.p.p.p.p.p.p.p.p.p.p.p.p.p.p.p.p.p.p.p.p.p.p.p.p.p.p.p.p.",
"p.p.p.p.p.p.p.p.p.p.p.p.p.p.p.p.p.p.p.p.p.p.p.p.p.p.p.                    p.p.p.p.p.p.p.p.p.p.p.p.p.p.p.p.p.p.p.p.p.p.p.p.p.p.p.",
"p.p.p.p.p.p.p.p.p.p.p.p.p.p.p.p.p.p.p.p.p.p.p.p.p.                            p.p.p.p.p.p.p.p.p.p.p.p.p.p.p.p.p.p.p.p.p.p.p.p.p.",
"p.p.p.p.p.p.p.p.p.p.p.p.p.p.p.p.p.p.p.p.p.p.p.p.                                p.p.p.p.p.p.p.p.p.p.p.p.p.p.p.p.p.p.p.p.p.p.p.p.",
"p.p.p.p.p.p.p.p.p.p.p.p.p.p.p.p.p.p.p.p.p.p.                                        p.p.p.p.p.p.p.p.p.p.p.p.p.p.p.p.p.p.p.p.p.p.",
"p.p.p.p.p.p.p.p.p.p.p.p.p.p.p.p.p.p.p.p.                                                p.p.p.p.p.p.p.p.p.p.p.p.p.p.p.p.p.p.p.p.",
"p.p.p.p.p.p.p.p.p.p.p.p.p.p.p.p.p.p.                                                        p.p.p.p.p.p.p.p.p.p.p.p.p.p.p.p.p.p.",
"p.p.p.p.p.p.p.p.p.p.p.p.p.p.p.p.p.                                                            p.p.p.p.p.p.p.p.p.p.p.p.p.p.p.p.p.",
"p.p.p.p.p.p.p.p.p.p.p.p.p.p.p.                                                                    p.p.p.p.p.p.p.p.p.p.p.p.p.p.p.",
"p.p.p.p.p.p.p.p.p.p.p.p.p.                                                                            p.p.p.p.p.p.p.p.p.p.p.p.p.",
"p.p.p.p.p.p.p.p.p.p.p.                                                                                  p.p.p.p.p.p.p.p.p.p.p.p.",
"p.p.p.p.p.p.p.p.p.p.                                                                                        p.p.p.p.p.p.p.p.p.p.",
"p.p.p.p.p.p.p.p.                                                                                                p.p.p.p.p.p.p.p.",
"p.p.p.p.p.p.p.                                                                                                    p.p.p.p.p.p.p.",
"p.p.p.p.p.p.                                                                                                        p.p.p.p.p.p.",
"p.p.p.p.p.p.                                                                                                        p.p.p.p.p.p.",
"p.p.p.p.p.                                                                                                            p.p.p.p.p.",
"p.p.p.p.p.                                                                                                            p.p.p.p.p.",
"p.p.p.p.                                C [ ) H                               * W ( } n                                 p.p.p.p.",
"p.p.p.p.                                ' i.i.2.+                             * e.i.i.E                                 p.p.p.p.",
"p.p.p.p.                                ( i.i.;.y y d d d d d d d d d d d d t g q.i.i.E                                 p.p.p.p.",
"p.p.p.p.                                ( i.i.q.H E W W W W W W W W W W W W K E t.i.i.H                                 p.p.p.p.",
"p.p.p.p.                                H i.i.i.w                             p i.i.i.N                                 p.p.p.p.",
"p.p.p.p.                                r i.i.i.)     & & & & # # & # & &      .i.i.i.4                                 p.p.p.p.",
"p.p.p.p.                                  ' i.i.i.O.A E ' ) ' ) ) ) ' ' K A %.i.i.i.I                                   p.p.p.p.",
"p.p.p.p.                                  1 5.i.i.i.[ 4   * 4 1 4 1 &   0 %.i.i.i.=.#                                   p.p.p.p.",
"p.p.p.p.                                    6 6.i.i.i.5.d             v q.i.i.i.;.,                                     p.p.p.p.",
"p.p.p.p.                                      : ..i.i.i.i.-.j     n 5.i.i.i.i.) #                                       p.p.p.p.",
"p.p.p.p.                                          N t.i.i.i.i...%.i.i.i.i.q.g                                           p.p.p.p.",
"p.p.p.p.                                              z 8.i.i.i.i.i.i.2.p                                               p.p.p.p.",
"p.p.p.p.                                              g 8.i.i.i.i.i.i.2.p                                               p.p.p.p.",
"p.p.p.p.                                          V t.i.i.i.i.#.%.i.i.i.i.q.g                                           p.p.p.p.",
"p.p.p.p.                                      : ..i.i.i.i.;.z     V 6.i.i.i.i.) #                                       p.p.p.p.",
"p.p.p.p.                                    6 6.i.i.i.2.d             z 6.i.i.i.;.,                                     p.p.p.p.",
"p.p.p.p.                                  1 5.i.i.i.O.8   1 8 8 8 8 ,   e ;.i.i.i.=.+                                   p.p.p.p.",
"p.p.p.p.                                  ' i.i.i. .A E ' ) ) ) ) ) ) ) E A O.i.i.i.I                                   p.p.p.p.",
"p.p.p.p.                                e i.i.i.'     +   + +     + + + +     O.i.i.i.4                                 p.p.p.p.",
"p.p.p.p.                                D i.i.i.w                             p i.i.i.V                                 p.p.p.p.",
"p.p.p.p.                                ( i.i.q.H K E E I E E I E E I E E E D K i.i.i.K                                 p.p.p.p.",
"p.p.p.p.                                ( i.i.;.z z v v v v n n v v v v n n g N q.i.i.E                                 p.p.p.p.",
"p.p.p.p.                                ' i.i.2.+                             * q.i.i.E                                 p.p.p.p.",
"p.p.p.p.                                C [ ) H                               * ~ ( } v                                 p.p.p.p.",
"p.p.p.p.p.                                                                                                            p.p.p.p.p.",
"p.p.p.p.p.                                                                                                            p.p.p.p.p.",
"p.p.p.p.p.p.                                                                                                        p.p.p.p.p.p.",
"p.p.p.p.p.p.                                                                                                        p.p.p.p.p.p.",
"p.p.p.p.p.p.p.                                                                                                    p.p.p.p.p.p.p.",
"p.p.p.p.p.p.p.p.                                                                                                p.p.p.p.p.p.p.p.",
"p.p.p.p.p.p.p.p.p.p.                                                                                        p.p.p.p.p.p.p.p.p.p.",
"p.p.p.p.p.p.p.p.p.p.p.                                                                                  p.p.p.p.p.p.p.p.p.p.p.p.",
"p.p.p.p.p.p.p.p.p.p.p.p.p.                                                                            p.p.p.p.p.p.p.p.p.p.p.p.p.",
"p.p.p.p.p.p.p.p.p.p.p.p.p.p.p.                                                                    p.p.p.p.p.p.p.p.p.p.p.p.p.p.p.",
"p.p.p.p.p.p.p.p.p.p.p.p.p.p.p.p.p.                                                            p.p.p.p.p.p.p.p.p.p.p.p.p.p.p.p.p.",
"p.p.p.p.p.p.p.p.p.p.p.p.p.p.p.p.p.p.                                                        p.p.p.p.p.p.p.p.p.p.p.p.p.p.p.p.p.p.",
"p.p.p.p.p.p.p.p.p.p.p.p.p.p.p.p.p.p.p.p.                                                p.p.p.p.p.p.p.p.p.p.p.p.p.p.p.p.p.p.p.p.",
"p.p.p.p.p.p.p.p.p.p.p.p.p.p.p.p.p.p.p.p.p.p.                                        p.p.p.p.p.p.p.p.p.p.p.p.p.p.p.p.p.p.p.p.p.p.",
"p.p.p.p.p.p.p.p.p.p.p.p.p.p.p.p.p.p.p.p.p.p.p.p.                                p.p.p.p.p.p.p.p.p.p.p.p.p.p.p.p.p.p.p.p.p.p.p.p.",
"p.p.p.p.p.p.p.p.p.p.p.p.p.p.p.p.p.p.p.p.p.p.p.p.p.                            p.p.p.p.p.p.p.p.p.p.p.p.p.p.p.p.p.p.p.p.p.p.p.p.p.",
"p.p.p.p.p.p.p.p.p.p.p.p.p.p.p.p.p.p.p.p.p.p.p.p.p.p.p.                    p.p.p.p.p.p.p.p.p.p.p.p.p.p.p.p.p.p.p.p.p.p.p.p.p.p.p.",
"p.p.p.p.p.p.p.p.p.p.p.p.p.p.p.p.p.p.p.p.p.p.p.p.p.p.p.p.p.            p.p.p.p.p.p.p.p.p.p.p.p.p.p.p.p.p.p.p.p.p.p.p.p.p.p.p.p.p.",
"p.p.p.p.p.p.p.p.p.p.p.p.p.p.p.p.p.p.p.p.p.p.p.p.p.p.p.p.p.p.p.p.p.p.p.p.p.p.p.p.p.p.p.p.p.p.p.p.p.p.p.p.p.p.p.p.p.p.p.p.p.p.p.p.",
"p.p.p.p.p.p.p.p.p.p.p.p.p.p.p.p.p.p.p.p.p.p.p.p.p.p.p.p.p.p.p.p.p.p.p.p.p.p.p.p.p.p.p.p.p.p.p.p.p.p.p.p.p.p.p.p.p.p.p.p.p.p.p.p."
};
