/* XPM */
static char *_3573047e4ad4df6d75d246c15567987[] = {
/* columns rows colors chars-per-pixel */
"16 16 38 1 ",
"  c black",
". c #010101",
"X c gray2",
"o c #060606",
"O c #070707",
"+ c gray3",
"@ c #090909",
"# c #101010",
"$ c #111111",
"% c gray8",
"& c #151515",
"* c #161616",
"= c gray9",
"- c #181818",
"; c #272727",
": c gray16",
"> c gray17",
", c #2C2C2C",
"< c gray19",
"1 c #313131",
"2 c #353535",
"3 c gray59",
"4 c #979797",
"5 c #9A9A9A",
"6 c #9B9B9B",
"7 c #B7B7B7",
"8 c gray73",
"9 c gray74",
"0 c #CACACA",
"q c #CBCBCB",
"w c #CECECE",
"e c gray81",
"r c gray82",
"t c #D5D5D5",
"y c gray84",
"u c gainsboro",
"i c #DDDDDD",
"p c None",
/* pixels */
"ppppppp  ppppppp",
"pppppp    pppppp",
"pppp        pppp",
"pp            pp",
"p              p",
"p   *r,:;1w#   p",
"p   Oiq*-rtO   p",
"p    @6784O    p",
"p    O6894O    p",
"p   Ouq--rtO   p",
"p   *r1::2w$   p",
"p              p",
"pp            pp",
"pppp        pppp",
"pppppp    pppppp",
"ppppppp  ppppppp"
};
